<?xml version="1.0" encoding="UTF-8" standalone="no"?>
<!DOCTYPE svg PUBLIC "-//W3C//DTD SVG 1.1//EN" "http://www.w3.org/Graphics/SVG/1.1/DTD/svg11.dtd">
<svg width="370.00" height="320.00" viewBox="0.00 0.00 370.00 320.00" xmlns="http://www.w3.org/2000/svg" xmlns:xlink="http://www.w3.org/1999/xlink">
<g stroke-linecap="round" id="Layer_2">
<path d="M67.00,45.97 C67.00,46.30 67.00,46.63 67.00,46.96 C67.00,77.48 67.00,136.92 67.00,165.83" fill="none" stroke="rgb(217, 217, 217)" stroke-width="6.00" stroke-opacity="1.00" stroke-linejoin="round"/>
<path d="M67.00,45.63 C67.00,45.63 67.00,45.97 67.00,45.97 C67.00,45.97 67.00,32.00 67.00,32.00 C94.87,32.00 156.82,32.00 190.90,32.00 C221.23,32.00 281.15,32.00 310.74,32.00 C311.50,32.00 312.25,32.00 313.00,32.00 C313.00,60.29 313.00,121.64 313.00,154.70 C313.00,185.58 313.00,244.98 313.00,273.49 C313.00,274.91 313.00,277.16 313.00,278.00 C313.00,278.00 309.27,278.00 309.27,278.00 C309.27,278.00 304.57,278.00 304.57,278.00 C304.57,278.00 304.73,278.00 304.73,278.00" fill="none" stroke="rgb(217, 217, 217)" stroke-width="6.00" stroke-opacity="1.00" stroke-linejoin="round"/>
<path d="M67.00,165.32 C67.00,165.50 67.00,166.58 67.00,167.49 C67.00,199.37 67.00,254.63 67.00,278.00 C96.32,278.00 159.42,278.00 193.20,278.00 C207.77,278.00 231.34,278.00 240.34,278.00 C240.57,278.00 240.79,278.00 241.02,278.00 C241.07,278.00 241.13,278.00 241.18,278.00" fill="none" stroke="rgb(217, 217, 217)" stroke-width="6.00" stroke-opacity="1.00" stroke-linejoin="round"/>
<path d="M291.75,278.00 C291.75,278.00 291.54,278.00 291.54,278.00 C291.54,278.00 313.00,278.00 313.00,278.00" fill="none" stroke="rgb(217, 217, 217)" stroke-width="6.00" stroke-opacity="1.00" stroke-linejoin="round"/>
<path d="M95.16,78.13 C95.16,78.13 94.23,78.13 94.23,78.13 C94.23,78.13 196.16,78.13 196.16,78.13" fill="none" stroke="rgb(217, 217, 217)" stroke-width="6.00" stroke-opacity="1.00" stroke-linejoin="round"/>
<path d="M194.88,78.13 C193.45,78.13 190.83,78.13 189.64,78.13 C158.66,78.13 117.25,78.13 106.82,78.13 C106.59,78.13 106.16,78.13 105.97,78.13" fill="none" stroke="rgb(217, 217, 217)" stroke-width="6.00" stroke-opacity="1.00" stroke-linejoin="round"/>
<path d="M102.08,175.14 C102.08,175.14 101.66,175.58 101.66,175.58 C122.96,153.62 166.52,108.71 188.77,85.77 C190.99,83.48 195.03,79.32 196.84,77.45" fill="none" stroke="rgb(217, 217, 217)" stroke-width="6.00" stroke-opacity="1.00" stroke-linejoin="round"/>
<path d="M110.69,166.27 C110.38,166.59 108.69,168.34 107.31,169.76 C105.06,172.08 100.78,176.49 98.76,178.57" fill="none" stroke="rgb(217, 217, 217)" stroke-width="6.00" stroke-opacity="1.00" stroke-linejoin="round"/>
<path d="M98.18,178.57 C99.19,178.57 100.20,178.57 101.20,178.57 C130.85,178.57 194.41,178.57 228.31,178.57 C242.39,178.57 265.21,178.57 273.95,178.57" fill="none" stroke="rgb(217, 217, 217)" stroke-width="6.00" stroke-opacity="1.00" stroke-linejoin="round"/>
<path d="M273.95,178.57" fill="none" stroke="rgb(217, 217, 217)" stroke-width="6.00" stroke-opacity="1.00" stroke-linejoin="round"/>
<path d="M273.61,180.61 C273.61,180.61 273.61,179.63 273.61,179.63 C273.61,179.63 273.61,218.14 273.61,218.14" fill="none" stroke="rgb(217, 217, 217)" stroke-width="6.00" stroke-opacity="1.00" stroke-linejoin="round"/>
<path d="M82.39,219.50 C88.29,219.50 100.16,219.50 106.14,219.50 C141.17,219.50 208.28,219.50 240.34,219.50 C255.96,219.50 272.43,219.50 273.27,219.50" fill="none" stroke="rgb(217, 217, 217)" stroke-width="6.00" stroke-opacity="1.00" stroke-linejoin="round"/>
<path d="M267.86,126.49 C267.86,126.49 194.81,126.49 194.81,126.49" fill="none" stroke="rgb(217, 217, 217)" stroke-width="6.00" stroke-opacity="1.00" stroke-linejoin="round"/>
<path d="M193.46,125.48 C193.46,128.05 193.46,133.61 193.46,136.59 C193.46,169.16 193.46,203.34 193.46,204.95" fill="none" stroke="rgb(217, 217, 217)" stroke-width="6.00" stroke-opacity="1.00" stroke-linejoin="round"/>
</g>
</svg>
